<svg width="633" height="76" viewBox="0 0 633 76" fill="none" xmlns="http://www.w3.org/2000/svg">
    <path
        d="M79.9281 54.1983H39.1485C29.4633 54.1983 22.8366 47.1638 22.8366 37.2747C22.8366 28.3032 29.4633 21.2687 39.1485 21.2687H79.9281C87.6763 21.2687 93.4874 26.0603 95.5264 32.2792H118.771C116.528 13.0108 101.032 0.369141 79.9281 0.369141H39.1485C16.3119 0.369141 0 15.2537 0 37.2747C0 59.3977 16.8216 74.1803 39.1485 74.1803H79.9281C101.032 74.1803 116.528 61.5386 118.771 42.2702H95.5264C93.4874 48.5911 87.6763 54.1983 79.9281 54.1983Z"
        fill="white" />
    <path
        d="M215.787 1.59253V26.5701H149.316V1.59253H126.887V72.957H149.316V46.4502H215.787V72.957H238.215V1.59253H215.787Z"
        fill="white" />
    <path
        d="M347.34 20.9629V1.59253H248.449V72.957H347.34V53.5866H270.878V46.6541H340.407V28.0993H270.878V20.9629H347.34Z"
        fill="white" />
    <path
        d="M357.567 72.957H380.098V56.6451H428.523L438.209 72.957H464.206L451.564 53.6886C461.453 49.1008 467.468 39.8235 467.468 29.1188C467.468 13.9284 455.438 1.59253 437.189 1.59253H357.567V72.957ZM380.098 36.9689V21.2687H437.189C441.471 21.2687 445.039 24.735 445.039 29.1188C445.039 33.5026 441.471 36.9689 437.189 36.9689H380.098Z"
        fill="white" />
    <path d="M476.441 72.957H498.87V1.59253H476.441V72.957Z" fill="white" />
    <path
        d="M588.977 0.369141H548.197C525.361 0.369141 509.049 15.2537 509.049 37.2747C509.049 59.3977 525.871 74.1803 548.197 74.1803H588.977C611.814 74.1803 628.126 59.3977 628.126 37.2747C628.126 15.2537 611.814 0.369141 588.977 0.369141ZM588.977 53.2808H548.197C538.512 53.2808 531.885 46.3482 531.885 37.2747C531.885 28.3032 538.512 21.2687 548.197 21.2687H588.977C598.662 21.2687 605.289 28.3032 605.289 37.2747C605.289 46.3482 598.662 53.2808 588.977 53.2808Z"
        fill="white" />
    <circle cx="626.68" cy="68.471" r="5.32011" fill="url(#paint0_linear_5663_34231)" />
    <path
        d="M632.856 59.8873C632.856 60.9466 631.997 61.8054 630.938 61.8054C629.878 61.8054 629.02 60.9466 629.02 59.8873C629.02 58.828 629.878 57.9692 630.938 57.9692C631.997 57.9692 632.856 58.828 632.856 59.8873Z"
        fill="url(#paint1_linear_5663_34231)" />
    <circle cx="618.567" cy="73.5248" r="1.91806" fill="url(#paint2_linear_5663_34231)" />
    <defs>
        <linearGradient id="paint0_linear_5663_34231" x1="621.338" y1="75.0166" x2="632.633"
            y2="61.1639" gradientUnits="userSpaceOnUse">
            <stop stop-color="#BD00FF" />
            <stop offset="1" stop-color="#00FFF0" />
        </linearGradient>
        <linearGradient id="paint1_linear_5663_34231" x1="617.837" y1="74.0553" x2="633.41"
            y2="58.6338" gradientUnits="userSpaceOnUse">
            <stop stop-color="#BD00FF" />
            <stop offset="1" stop-color="#00FFF0" />
        </linearGradient>
        <linearGradient id="paint2_linear_5663_34231" x1="616.641" y1="75.8847" x2="633.912"
            y2="58.8196" gradientUnits="userSpaceOnUse">
            <stop stop-color="#BD00FF" />
            <stop offset="1" stop-color="#00FFF0" />
        </linearGradient>
    </defs>
</svg>